<?xml version="1.0" encoding="utf-8"?>
<!-- Generator: Adobe Illustrator 22.1.0, SVG Export Plug-In . SVG Version: 6.00 Build 0)  -->
<svg version="1.1" id="katman_1" xmlns="http://www.w3.org/2000/svg" xmlns:xlink="http://www.w3.org/1999/xlink" x="0px" y="0px"
	 viewBox="0 0 350 350" style="enable-background:new 0 0 350 350;" xml:space="preserve">
<style type="text/css">
	.st0{fill:#12678A;}
	.st1{fill:#094D5E;}
	.st2{fill:#218CC5;}
	.st3{fill:#70B8E6;}
	.st4{fill:#020203;}
	.st5{fill:#3A549C;}
</style>
<g>
	<g>
		<polygon class="st0" points="345.1,121.7 305.8,229.5 277.9,229.5 293.1,187.9 262.4,187.9 247.3,229.5 219.6,229.5 223.8,218 
			253.8,135.4 258.8,121.7 286.6,121.7 271.6,162.7 302.2,162.7 317.2,121.7 		"/>
		<path class="st1" d="M253.8,175.5c-7.3,20.2-21.2,34.8-30,42.5l30-82.7C256.9,139.7,262.5,151.6,253.8,175.5z"/>
	</g>
	<g>
		<path class="st2" d="M211.7,121.7h-35.4L150,193.8l-13,35.7h35c34.9,0,62.6-21.6,74.2-53.3l0.6-1.8
			C258.4,142.7,246.3,121.7,211.7,121.7z M218.4,174.9l-0.5,1.4c-7,19.2-20.7,28.4-36.1,28.4h-7.9l21.1-58.1h8
			C218.4,146.5,225.4,155.5,218.4,174.9z"/>
		<polygon class="st0" points="150.1,193.8 149.5,229.4 137.1,229.4 		"/>
	</g>
	<path class="st3" d="M116.7,121.1l-4.6,6.4h3v3.2h1l-2.3,3.2h-0.4v-3.2H110v3.2h-2.4l-4.6,6.4h9.4v3.2h0.9l-2.4,3.2h-3.2v-3.2h-3.2
		v3.2l-4.6,6.4h5.5v3.2h3.2v-3.2h4.1l-4.6,6.4h-6.2v-3.2h-3.2v3.2h-3.5l-4.6,6.4h6.4l-4.6,6.4h-4.8v-3.2h-3.3v3.2H80l-4.6,6.4h15.9
		v3.1h0.6l-2.4,3.3h-3.2v-3.3H83v3.3l-4.6,6.4h-8.9v3.2h0.1l-2.3,3.2h12.8l-4.8,6.4H62.6L58,211h-2.2v-3.3h-3.3v3.3l-4.6,6.4h8.9
		v3.2h0.8l-2.3,3.2h-2.4v-3.2h-3.3v3.2h-6.2l-4,5.6h28.5l3.9-5.6l4.4-6.4l4.4-6.4l0.6-0.9h33.9l-0.8,19.4h29.1l1.3-101.9l0.1-6.4
		H116.7z M117.4,159.6l-1.4,28.2H96l1.8-2.6l4.4-6.4l4.4-6.4l4.5-6.4l6.5-9.6L117.4,159.6z"/>
	<rect x="25.4" y="220.6" class="st4" width="3.2" height="3.2"/>
	<rect x="38.7" y="121.1" class="st4" width="6.4" height="6.4"/>
	<rect x="5.9" y="121.1" class="st3" width="22.7" height="22.7"/>
	<rect x="34.8" y="128.3" class="st2" width="32.1" height="32.1"/>
	<rect x="72.8" y="121.7" class="st3" width="16.3" height="16.3"/>
	<rect x="16" y="152.6" class="st5" width="16.3" height="16.3"/>
	<rect x="37.7" y="162.8" class="st3" width="6.4" height="6.4"/>
	<rect x="66.3" y="180.4" class="st2" width="6.4" height="6.4"/>
	<rect x="38.7" y="121.1" class="st3" width="6.4" height="6.4"/>
	<rect x="25.4" y="145.1" class="st2" width="6.4" height="6.4"/>
	<rect x="14.5" y="146" class="st2" width="3.2" height="3.2"/>
	<rect x="65.7" y="122.6" class="st5" width="3.2" height="3.2"/>
	<rect x="17.3" y="210.8" class="st2" width="3.2" height="3.2"/>
	<rect x="25.4" y="220.6" class="st2" width="3.2" height="3.2"/>
	<rect x="38.2" y="211.2" class="st3" width="3.3" height="3.2"/>
	<rect x="43" y="219" class="st2" width="3.3" height="3.2"/>
	<rect x="30.1" y="199.6" class="st3" width="3.2" height="3.2"/>
	<rect x="21" y="170.9" class="st5" width="3.2" height="3.2"/>
	<rect x="18.8" y="186.3" class="st5" width="3.2" height="3.2"/>
	<rect x="57" y="180.4" class="st3" width="3.2" height="3.2"/>
	<rect x="72.8" y="170.8" class="st2" width="3.2" height="3.2"/>
	<rect x="49.3" y="199.6" class="st3" width="3.2" height="3.2"/>
	<rect x="59.6" y="198.3" class="st2" width="3.2" height="3.2"/>
	<rect x="72.8" y="144.3" class="st3" width="3.2" height="3.2"/>
	<rect x="94.4" y="148.4" class="st2" width="3.2" height="3.2"/>
	<rect x="97.6" y="140.4" class="st3" width="3.2" height="3.2"/>
	<rect x="78.6" y="162.8" class="st2" width="3.2" height="3.2"/>
	<rect x="30.1" y="121.1" class="st5" width="3.2" height="3.2"/>
	<rect x="47.6" y="164.3" class="st5" width="3.2" height="3.2"/>
	<rect x="69.6" y="153.2" class="st2" width="6.4" height="6.4"/>
	<rect x="85.9" y="154.4" class="st3" width="6.4" height="6.4"/>
	<rect x="54.8" y="187.7" class="st5" width="6.4" height="6.4"/>
	<rect x="14.1" y="175.6" class="st3" width="6.4" height="6.4"/>
	<rect x="17.8" y="193.5" class="st3" width="6.4" height="6.4"/>
	<rect x="39.4" y="201.4" class="st5" width="6.4" height="6.4"/>
	<rect x="31.5" y="221.7" class="st3" width="6.4" height="6.4"/>
	<rect x="23.8" y="204.6" class="st5" width="12.2" height="12.3"/>
	<rect x="57.2" y="164.3" class="st5" width="12.3" height="12.3"/>
	<rect x="80.2" y="142" class="st5" width="11" height="11"/>
	<rect x="27.1" y="172.4" class="st2" width="25.7" height="25.7"/>
</g>
</svg>
