<?xml version="1.0" encoding="utf-8"?>
<!-- Generator: Adobe Illustrator 22.1.0, SVG Export Plug-In . SVG Version: 6.00 Build 0)  -->
<svg version="1.1" id="katman_1" xmlns="http://www.w3.org/2000/svg" xmlns:xlink="http://www.w3.org/1999/xlink" x="0px" y="0px"
	 viewBox="0 0 135 35" style="enable-background:new 0 0 135 35;" xml:space="preserve">
<style type="text/css">
	.st0{fill:#626161;}
	.st1{fill:#DCDCDC;}
	.st2{fill:#CCCCCB;}
	.st3{fill:#BABABA;}
	.st4{fill:#BD7C2D;}
	.st5{fill:#F7A52E;}
	.st6{fill:#ABABAB;}
	.st7{fill:#FBC172;}
	.st8{fill:#FFFFFF;}
</style>
<g>
	<g>
		<g>
			<polygon class="st0" points="47.8,9.6 47.8,26.4 33.3,34.7 18.8,26.4 18.8,9.6 33.3,1.2 			"/>
		</g>
		<g>
			<polygon class="st1" points="47.8,9.6 46.2,10.5 33.3,3 20.3,10.5 18.8,9.6 33.3,1.2 			"/>
			<polygon class="st2" points="47.8,9.6 47.8,26.4 33.3,34.7 33.3,32.9 46.2,25.5 46.2,10.5 			"/>
			<polygon class="st3" points="33.3,32.9 33.3,34.7 18.8,26.4 18.8,9.6 20.3,10.5 20.3,25.5 			"/>
			<polygon class="st3" points="46.2,10.5 44.6,11.4 33.3,4.9 33.3,3 			"/>
			<polygon class="st2" points="33.3,3 33.3,4.9 22,11.4 20.3,10.5 			"/>
			<polygon class="st4" points="22,11.4 22,24.5 20.3,25.5 20.3,10.5 			"/>
			<polygon class="st4" points="33.3,31 33.3,32.9 20.3,25.5 22,24.5 			"/>
			<polygon class="st5" points="46.2,25.5 33.3,32.9 33.3,31 44.6,24.5 			"/>
			<polygon class="st5" points="46.2,10.5 46.2,25.5 44.6,24.5 44.6,11.4 			"/>
			<polygon class="st2" points="44.6,11.5 44.6,24.5 33.3,31 33.3,29.1 42.9,23.5 42.9,12.4 			"/>
			<polygon class="st6" points="33.3,27.2 33.3,29.1 23.6,23.5 25.3,22.6 			"/>
			<polygon class="st4" points="25.3,13.4 25.3,22.6 23.6,23.5 23.6,12.4 			"/>
			<polygon class="st7" points="42.9,12.4 41.2,13.4 33.3,8.8 25.3,13.4 23.6,12.4 33.3,6.9 			"/>
			<polygon class="st3" points="42.9,23.5 33.3,29.1 33.3,27.2 41.2,22.6 			"/>
			<polygon class="st5" points="42.9,12.4 42.9,23.5 41.2,22.6 41.2,13.4 			"/>
			<polygon class="st1" points="41.2,13.4 41.2,13.4 39.6,14.3 33.3,18 27,14.3 25.3,13.4 25.3,13.4 33.3,8.8 			"/>
			<polygon class="st3" points="33.3,18 33.3,27.2 25.3,22.6 25.3,13.4 27,14.3 			"/>
			<polygon class="st1" points="44.6,11.4 44.6,11.5 42.9,12.4 33.3,6.9 23.6,12.4 22,11.5 22,11.4 33.3,4.9 			"/>
			<polygon class="st2" points="41.2,13.4 41.2,22.6 33.3,27.2 33.3,18 39.6,14.3 			"/>
			<polygon class="st3" points="33.3,29.1 33.3,31 22,24.5 22,11.5 23.6,12.4 23.6,23.5 			"/>
		</g>
	</g>
	<g>
		<path class="st8" d="M65.1,20.5c0,1.7-0.6,3.2-1.6,4.4c-1.1,1.2-2.4,1.8-3.9,1.8c-1.5,0-2.8-0.6-3.9-1.8c-1.1-1.2-1.6-2.7-1.6-4.4
			v-6h1.2v6c0,1.4,0.5,2.5,1.3,3.5c0.8,1,1.9,1.4,3.1,1.4c1.2,0,2.2-0.5,3.1-1.4c0.9-1,1.3-2.1,1.3-3.5v-6.1h1.2V20.5z"/>
		<path class="st8" d="M65.9,20.5c0-1.7,0.6-3.2,1.6-4.4c1.1-1.2,2.4-1.8,3.9-1.8c1.5,0,2.8,0.6,3.9,1.8c1.1,1.2,1.6,2.7,1.6,4.4v6
			h-1.2v-6c0-1.4-0.5-2.5-1.3-3.5c-0.8-1-1.9-1.4-3.1-1.4c-1.2,0-2.2,0.5-3.1,1.4c-0.9,1-1.3,2.1-1.3,3.5v6.1h-1.2V20.5z"/>
		<path class="st8" d="M79.9,13.1h-1.2v-1.1h1.2V13.1z M79.9,26.6h-1.2V14.4h1.2V26.6z"/>
		<path class="st8" d="M93,22c-0.4,1.4-1.1,2.5-2.2,3.4c-1.1,0.9-2.4,1.3-3.8,1.3c-1.7,0-3.2-0.6-4.4-1.8c-1.2-1.2-1.8-2.7-1.8-4.4
			c0-1.7,0.6-3.2,1.8-4.4c1.2-1.2,2.7-1.8,4.4-1.8c1.4,0,2.7,0.4,3.8,1.3c1.1,0.9,1.9,2,2.2,3.5h-1.2c-0.3-1.1-0.9-2-1.8-2.7
			c-0.9-0.7-1.9-1-3.1-1c-1.4,0-2.6,0.5-3.6,1.5c-1,1-1.5,2.2-1.5,3.6c0,1.4,0.5,2.6,1.5,3.6c1,1,2.2,1.5,3.6,1.5c1.1,0,2.1-0.3,3-1
			c0.9-0.6,1.5-1.5,1.9-2.6H93z"/>
		<path class="st8" d="M95,16.7c0,0,0.2-0.2,0.5-0.6c1.1-1.2,2.4-1.8,3.9-1.8c1.5,0,2.8,0.6,3.9,1.8c1.1,1.2,1.6,2.7,1.6,4.4v6h-1.2
			v-6c0-1.4-0.5-2.5-1.3-3.5c-0.8-1-1.9-1.4-3.1-1.4c-1.2,0-2.2,0.5-3.1,1.4c-0.9,1-1.3,2.1-1.3,3.5v6.1h-1.2V11.9H95V16.7z"/>
		<path class="st8" d="M117,24.2c-0.1,0.1-0.3,0.3-0.6,0.7c-1.2,1.2-2.7,1.8-4.4,1.8c-1.7,0-3.2-0.6-4.4-1.8
			c-1.2-1.2-1.8-2.7-1.8-4.4c0-1.7,0.6-3.2,1.8-4.4c1.2-1.2,2.7-1.8,4.4-1.8c1.7,0,3.2,0.6,4.4,1.8c1.2,1.2,1.8,2.7,1.8,4.4v6.1H117
			V24.2z M115.6,24.1c1-1,1.5-2.2,1.5-3.6c0-1.4-0.5-2.6-1.5-3.6c-1-1-2.2-1.5-3.6-1.5c-1.4,0-2.6,0.5-3.6,1.5c-1,1-1.5,2.2-1.5,3.6
			c0,1.4,0.5,2.6,1.5,3.6c1,1,2.2,1.5,3.6,1.5C113.4,25.5,114.6,25,115.6,24.1z"/>
		<path class="st8" d="M121.1,13.1H120v-1.1h1.2V13.1z M121.1,26.6H120V14.4h1.2V26.6z"/>
		<path class="st8" d="M122.9,20.5c0-1.7,0.6-3.2,1.6-4.4c1.1-1.2,2.4-1.8,3.9-1.8c1.5,0,2.8,0.6,3.9,1.8c1.1,1.2,1.6,2.7,1.6,4.4v6
			h-1.2v-6c0-1.4-0.5-2.5-1.3-3.5c-0.8-1-1.9-1.4-3.1-1.4c-1.2,0-2.2,0.5-3.1,1.4c-0.9,1-1.3,2.1-1.3,3.5v6.1h-1.2V20.5z"/>
	</g>
</g>
</svg>
