<?xml version="1.0" encoding="utf-8"?>
<!-- Generator: Adobe Illustrator 22.1.0, SVG Export Plug-In . SVG Version: 6.00 Build 0)  -->
<svg version="1.1" id="katman_1" xmlns="http://www.w3.org/2000/svg" xmlns:xlink="http://www.w3.org/1999/xlink" x="0px" y="0px"
	 viewBox="0 0 350 350" style="enable-background:new 0 0 350 350;" xml:space="preserve">
<style type="text/css">
	.st0{fill:#E7E5E5;}
</style>
<path class="st0" d="M234.3,122.2c0,14.2-11.5,25.7-25.7,25.7h-96.2v35.3l-60.9-60.9l60.9-60.9v35.3h96.2
	C222.8,96.5,234.3,108,234.3,122.2z"/>
<path class="st0" d="M304.8,122.2c0,23.1-8.1,44.3-21.8,60.9c-17.6,21.5-44.4,35.3-74.4,35.3h-11l71.9,71.9l-24.9,24.9L112.5,183.1
	h96.1c33.7,0,60.9-27.3,60.9-60.9s-27.3-60.9-60.9-60.9h-96.2L147.7,26h60.9c30,0,56.8,13.7,74.4,35.3
	C296.7,77.9,304.8,99.1,304.8,122.2z"/>
</svg>
