<?xml version="1.0" encoding="utf-8"?>
<!-- Generator: Adobe Illustrator 22.1.0, SVG Export Plug-In . SVG Version: 6.00 Build 0)  -->
<svg version="1.1" id="katman_1" xmlns="http://www.w3.org/2000/svg" xmlns:xlink="http://www.w3.org/1999/xlink" x="0px" y="0px"
	 viewBox="0 0 300 300" style="enable-background:new 0 0 300 300;" xml:space="preserve">
<style type="text/css">
	.st0{fill:#F2F2EF;}
	.st1{fill:#626161;}
	.st2{fill:#464545;}
	.st3{fill:#313131;}
	.st4{fill:#BD7C2D;}
	.st5{fill:#F7A52E;}
	.st6{fill:#202020;}
	.st7{fill:#FBC172;}
	.st8{fill:#353535;}
	.st9{display:none;fill:none;stroke:#000000;stroke-miterlimit:10;}
	.st10{fill:#D0D2D3;}
	.st11{fill:#A6A8AB;}
	.st12{fill:#808284;}
	.st13{fill:#595A5C;}
</style>
<rect x="-0.7" y="-0.7" class="st0" width="300.3" height="300.3"/>
<g>
	<g>
		<g>
			<polygon class="st1" points="187.9,50 187.9,92.9 150.7,114.3 113.5,92.9 113.5,50 150.7,28.5 			"/>
		</g>
		<g>
			<polygon class="st1" points="187.9,50 183.9,52.3 150.7,33.1 117.5,52.3 113.5,50 150.7,28.5 			"/>
			<polygon class="st2" points="187.9,50 187.9,92.9 150.7,114.3 150.7,109.8 183.9,90.6 183.9,52.3 			"/>
			<polygon class="st3" points="150.7,109.8 150.7,114.3 113.5,92.9 113.5,50 117.5,52.3 117.5,90.6 			"/>
			<polygon class="st3" points="183.9,52.3 179.6,54.7 150.7,38 150.7,33.1 			"/>
			<polygon class="st2" points="150.7,33.1 150.7,38 121.8,54.7 117.5,52.3 			"/>
			<polygon class="st4" points="121.8,54.7 121.8,88.1 117.5,90.6 117.5,52.3 			"/>
			<polygon class="st4" points="150.7,104.8 150.7,109.8 117.5,90.6 121.8,88.1 			"/>
			<polygon class="st5" points="183.9,90.6 150.7,109.8 150.7,104.8 179.6,88.1 			"/>
			<polygon class="st5" points="183.9,52.3 183.9,90.6 179.6,88.1 179.6,54.7 			"/>
			<polygon class="st2" points="179.6,54.7 179.6,88.1 150.7,104.8 150.7,99.9 175.4,85.7 175.4,57.2 			"/>
			<polygon class="st6" points="150.7,95 150.7,99.9 126,85.7 130.3,83.2 			"/>
			<polygon class="st4" points="130.3,59.6 130.3,83.2 126,85.7 126,57.2 			"/>
			<polygon class="st7" points="175.4,57.2 171.1,59.6 150.7,47.9 130.3,59.6 126,57.2 150.7,42.9 			"/>
			<polygon class="st8" points="175.4,85.7 150.7,99.9 150.7,95 171.1,83.2 			"/>
			<polygon class="st5" points="175.4,57.2 175.4,85.7 171.1,83.2 171.1,59.6 			"/>
			<polygon class="st1" points="171.1,59.6 171.1,59.7 166.8,62.1 150.7,71.4 134.6,62.1 130.3,59.7 130.3,59.6 150.7,47.9 			"/>
			<polygon class="st3" points="150.7,71.4 150.7,95 130.3,83.2 130.3,59.7 134.6,62.1 			"/>
			<polygon class="st1" points="179.6,54.7 179.6,54.7 175.4,57.2 150.7,42.9 126,57.2 121.8,54.7 121.8,54.7 150.7,38 			"/>
			<polygon class="st2" points="171.1,59.7 171.1,83.2 150.7,95 150.7,71.4 166.8,62.1 			"/>
			<polygon class="st3" points="150.7,99.9 150.7,104.8 121.8,88.1 121.8,54.7 126,57.2 126,85.7 			"/>
		</g>
	</g>
	<g>
		<path class="st3" d="M100.8,139.8c0,2.9-1,5.4-2.8,7.4c-1.8,2.1-4,3.1-6.6,3.1c-2.6,0-4.8-1-6.6-3.1c-1.8-2.1-2.8-4.5-2.8-7.5
			v-10.3h2v10.3c0,2.3,0.8,4.3,2.2,6c1.4,1.6,3.2,2.4,5.2,2.4c2,0,3.8-0.8,5.2-2.4c1.5-1.6,2.2-3.6,2.2-5.9v-10.3h2V139.8z"/>
		<path class="st3" d="M102.2,139.9c0-2.9,1-5.4,2.8-7.4c1.8-2.1,4-3.1,6.6-3.1c2.6,0,4.8,1,6.6,3.1c1.8,2.1,2.8,4.5,2.8,7.5v10.3
			h-2V140c0-2.3-0.8-4.3-2.2-6c-1.4-1.6-3.2-2.4-5.2-2.4c-2,0-3.8,0.8-5.2,2.4c-1.5,1.6-2.2,3.6-2.2,5.9v10.3h-2V139.9z"/>
		<path class="st3" d="M126,127.2h-2v-1.9h2V127.2z M126,150.2h-2v-20.6h2V150.2z"/>
		<path class="st3" d="M148.4,142.5c-0.7,2.4-1.9,4.3-3.8,5.7c-1.9,1.5-4.1,2.2-6.5,2.2c-2.9,0-5.4-1-7.5-3.1
			c-2.1-2.1-3.1-4.6-3.1-7.5c0-2.9,1-5.4,3.1-7.5c2.1-2.1,4.6-3.1,7.5-3.1c2.4,0,4.6,0.8,6.5,2.3c1.9,1.5,3.2,3.4,3.8,5.9h-2
			c-0.6-1.9-1.6-3.4-3.1-4.5c-1.5-1.2-3.3-1.7-5.2-1.7c-2.4,0-4.5,0.8-6.2,2.5c-1.7,1.7-2.5,3.7-2.5,6.1c0,2.4,0.8,4.5,2.5,6.2
			c1.7,1.7,3.7,2.5,6.2,2.5c1.9,0,3.6-0.6,5.1-1.7c1.5-1.1,2.5-2.5,3.2-4.4H148.4z"/>
		<path class="st3" d="M151.8,133.5c0-0.1,0.3-0.4,0.8-1c1.8-2.1,4-3.1,6.6-3.1c2.6,0,4.8,1,6.6,3.1c1.8,2.1,2.8,4.5,2.8,7.5v10.3
			h-2V140c0-2.3-0.8-4.3-2.2-6c-1.4-1.6-3.2-2.4-5.2-2.4s-3.8,0.8-5.2,2.4c-1.5,1.6-2.2,3.6-2.2,5.9v10.3h-2v-25h2V133.5z"/>
		<path class="st3" d="M189.2,146.2c-0.1,0.2-0.5,0.5-1.1,1.2c-2.1,2.1-4.6,3.1-7.5,3.1c-2.9,0-5.4-1-7.5-3.1s-3.1-4.6-3.1-7.5
			c0-2.9,1-5.4,3.1-7.5c2.1-2.1,4.6-3.1,7.5-3.1s5.4,1,7.5,3.1c2.1,2.1,3.1,4.6,3.1,7.5v10.4h-2V146.2z M186.7,145.9
			c1.7-1.7,2.5-3.7,2.5-6.1c0-2.4-0.8-4.4-2.5-6.1c-1.7-1.7-3.7-2.5-6.1-2.5c-2.4,0-4.4,0.8-6.1,2.5c-1.7,1.7-2.5,3.7-2.5,6.1
			c0,2.4,0.8,4.4,2.5,6.1c1.7,1.7,3.7,2.5,6.1,2.5C183,148.4,185,147.6,186.7,145.9z"/>
		<path class="st3" d="M196.2,127.2h-2v-1.9h2V127.2z M196.2,150.2h-2v-20.6h2V150.2z"/>
		<path class="st3" d="M199.2,139.9c0-2.9,1-5.4,2.8-7.4c1.8-2.1,4-3.1,6.6-3.1c2.6,0,4.8,1,6.6,3.1c1.8,2.1,2.8,4.5,2.8,7.5v10.3
			h-2V140c0-2.3-0.8-4.3-2.2-6c-1.4-1.6-3.2-2.4-5.2-2.4s-3.8,0.8-5.2,2.4c-1.5,1.6-2.2,3.6-2.2,5.9v10.3h-2V139.9z"/>
	</g>
</g>
<rect x="-545.4" y="4.3" class="st9" width="254.1" height="173.5"/>
<g id="XMLID_98_">
	<g id="XMLID_99_">
		<path id="XMLID_103_" class="st10" d="M172,171.5c-0.6-0.3-1.2,0-1.2,0.7v87.2l38.2,19.1c1.9,1,3.5,0,3.5-2.1v-84
			c0-0.4-0.2-0.8-0.6-1L172,171.5z"/>
		<path id="XMLID_102_" class="st11" d="M129.2,238.7l41-66.6c0.4-0.6,1.2-0.8,1.8-0.5l39.6,19.8c0.5,0.2,0.7,0.9,0.4,1.3
			l-41.1,66.8L129.2,238.7z"/>
		<path id="XMLID_101_" class="st12" d="M92.1,173.3c-2.5-1.3-3.4-0.3-1.9,2.1l39,63.3l41.7,20.8l-41.4-67.3
			c-0.2-0.3-0.4-0.5-0.7-0.7L92.1,173.3z"/>
		<path id="XMLID_100_" class="st13" d="M129.2,276.5c0,2.1-1.6,3.1-3.5,2.1l-35.9-17.9c-1.3-0.6-2.3-2.3-2.3-3.7v-83.4
			c0-1.4,1-2.1,2.3-1.4l38.8,19.4c0.3,0.2,0.5,0.5,0.5,0.8V276.5z"/>
	</g>
</g>
</svg>
